<svg width="14" height="18" viewBox="0 0 14 18" fill="none" xmlns="http://www.w3.org/2000/svg">
<path d="M13.3041 0H1.47676C0.660771 0 0 0.660771 0 1.47676V16.2576C0 17.0736 0.660771 17.7344 1.47676 17.7344H13.3041C13.4682 17.7344 13.6012 17.6013 13.6012 17.4373V0.297125C13.5968 0.133041 13.4638 0 13.3041 0ZM9.75635 0.589816H11.5302V3.3615L10.7763 2.98456C10.6921 2.94464 10.5945 2.94464 10.5102 2.98456L9.75635 3.3615V0.589816ZM0.589816 1.47676C0.589816 0.988939 0.988939 0.589816 1.47676 0.589816H1.77388V14.191H1.47676C1.15746 14.191 0.842594 14.2975 0.589816 14.4926V1.47676ZM13.007 15.6678H1.77388V16.2576H13.007V17.1446H1.47676C0.988939 17.1446 0.589816 16.7454 0.589816 16.2576V15.6678C0.589816 15.18 0.988939 14.7809 1.47676 14.7809H13.007V15.6678ZM13.007 14.191H2.3637V0.589816H9.1621V3.84045C9.1621 4.00454 9.29514 4.13758 9.45922 4.13758C9.50357 4.13758 9.55235 4.12871 9.59226 4.10653L10.6433 3.58324L11.6943 4.11097C11.8407 4.18192 12.018 4.12427 12.089 3.97793C12.1112 3.93802 12.12 3.88923 12.12 3.84489V0.589816H13.007V14.191Z" fill="white" fill-opacity="0.5"/>
</svg>
