<svg width="40" height="37" viewBox="0 0 40 37" fill="none" xmlns="http://www.w3.org/2000/svg">
<path d="M17.2561 5.62861C17.2561 7.1214 16.6066 8.55306 15.4505 9.60863C14.2944 10.6642 12.7264 11.2572 11.0915 11.2572C9.45649 11.2572 7.88848 10.6642 6.73239 9.60863C5.57629 8.55306 4.9268 7.1214 4.9268 5.62861C4.9268 4.13581 5.57629 2.70415 6.73239 1.64858C7.88848 0.593012 9.45649 0 11.0915 0C12.7264 0 14.2944 0.593012 15.4505 1.64858C16.6066 2.70415 17.2561 4.13581 17.2561 5.62861ZM27.6744 14.7537C27.4432 14.6479 27.1813 14.6112 26.926 14.6488C26.6707 14.6864 26.4347 14.7963 26.2516 14.9631L17.1032 25.5674L10.544 19.3264C10.3072 19.1824 10.0232 19.1177 9.74002 19.1431C9.45688 19.1686 9.19209 19.2826 8.99054 19.466L0 29.2687V33.7716C0 34.3688 0.259796 34.9414 0.722235 35.3636C1.18467 35.7859 1.81188 36.0231 2.46587 36.0231H36.988C37.3118 36.0231 37.6325 35.9648 37.9316 35.8517C38.2308 35.7385 38.5026 35.5727 38.7316 35.3636C38.9606 35.1546 39.1422 34.9064 39.2661 34.6332C39.3901 34.3601 39.4538 34.0673 39.4538 33.7716V23.6401L27.6744 14.7537Z" fill="#95ACCB"/>
</svg>
