<svg width="16" height="14" viewBox="0 0 16 14" fill="none" xmlns="http://www.w3.org/2000/svg">
<path d="M0.0166016 1C0.0166016 0.734784 0.132418 0.48043 0.338571 0.292893C0.544725 0.105357 0.82433 0 1.11588 0H3.31442C3.60597 0 3.88557 0.105357 4.09173 0.292893C4.29788 0.48043 4.4137 0.734784 4.4137 1V3C4.4137 3.26522 4.29788 3.51957 4.09173 3.70711C3.88557 3.89464 3.60597 4 3.31442 4H1.11588C0.82433 4 0.544725 3.89464 0.338571 3.70711C0.132418 3.51957 0.0166016 3.26522 0.0166016 3V1ZM5.51297 1C5.51297 0.734784 5.62879 0.48043 5.83494 0.292893C6.04109 0.105357 6.3207 0 6.61224 0H8.81079C9.10234 0 9.38194 0.105357 9.58809 0.292893C9.79425 0.48043 9.91006 0.734784 9.91006 1V3C9.91006 3.26522 9.79425 3.51957 9.58809 3.70711C9.38194 3.89464 9.10234 4 8.81079 4H6.61224C6.3207 4 6.04109 3.89464 5.83494 3.70711C5.62879 3.51957 5.51297 3.26522 5.51297 3V1ZM11.0093 1C11.0093 0.734784 11.1252 0.48043 11.3313 0.292893C11.5375 0.105357 11.8171 0 12.1086 0H14.3072C14.5987 0 14.8783 0.105357 15.0845 0.292893C15.2906 0.48043 15.4064 0.734784 15.4064 1V3C15.4064 3.26522 15.2906 3.51957 15.0845 3.70711C14.8783 3.89464 14.5987 4 14.3072 4H12.1086C11.8171 4 11.5375 3.89464 11.3313 3.70711C11.1252 3.51957 11.0093 3.26522 11.0093 3V1ZM0.0166016 6C0.0166016 5.73478 0.132418 5.48043 0.338571 5.29289C0.544725 5.10536 0.82433 5 1.11588 5H3.31442C3.60597 5 3.88557 5.10536 4.09173 5.29289C4.29788 5.48043 4.4137 5.73478 4.4137 6V8C4.4137 8.26522 4.29788 8.51957 4.09173 8.70711C3.88557 8.89464 3.60597 9 3.31442 9H1.11588C0.82433 9 0.544725 8.89464 0.338571 8.70711C0.132418 8.51957 0.0166016 8.26522 0.0166016 8V6ZM5.51297 6C5.51297 5.73478 5.62879 5.48043 5.83494 5.29289C6.04109 5.10536 6.3207 5 6.61224 5H8.81079C9.10234 5 9.38194 5.10536 9.58809 5.29289C9.79425 5.48043 9.91006 5.73478 9.91006 6V8C9.91006 8.26522 9.79425 8.51957 9.58809 8.70711C9.38194 8.89464 9.10234 9 8.81079 9H6.61224C6.3207 9 6.04109 8.89464 5.83494 8.70711C5.62879 8.51957 5.51297 8.26522 5.51297 8V6ZM11.0093 6C11.0093 5.73478 11.1252 5.48043 11.3313 5.29289C11.5375 5.10536 11.8171 5 12.1086 5H14.3072C14.5987 5 14.8783 5.10536 15.0845 5.29289C15.2906 5.48043 15.4064 5.73478 15.4064 6V8C15.4064 8.26522 15.2906 8.51957 15.0845 8.70711C14.8783 8.89464 14.5987 9 14.3072 9H12.1086C11.8171 9 11.5375 8.89464 11.3313 8.70711C11.1252 8.51957 11.0093 8.26522 11.0093 8V6ZM0.0166016 11C0.0166016 10.7348 0.132418 10.4804 0.338571 10.2929C0.544725 10.1054 0.82433 10 1.11588 10H3.31442C3.60597 10 3.88557 10.1054 4.09173 10.2929C4.29788 10.4804 4.4137 10.7348 4.4137 11V13C4.4137 13.2652 4.29788 13.5196 4.09173 13.7071C3.88557 13.8946 3.60597 14 3.31442 14H1.11588C0.82433 14 0.544725 13.8946 0.338571 13.7071C0.132418 13.5196 0.0166016 13.2652 0.0166016 13V11ZM5.51297 11C5.51297 10.7348 5.62879 10.4804 5.83494 10.2929C6.04109 10.1054 6.3207 10 6.61224 10H8.81079C9.10234 10 9.38194 10.1054 9.58809 10.2929C9.79425 10.4804 9.91006 10.7348 9.91006 11V13C9.91006 13.2652 9.79425 13.5196 9.58809 13.7071C9.38194 13.8946 9.10234 14 8.81079 14H6.61224C6.3207 14 6.04109 13.8946 5.83494 13.7071C5.62879 13.5196 5.51297 13.2652 5.51297 13V11ZM11.0093 11C11.0093 10.7348 11.1252 10.4804 11.3313 10.2929C11.5375 10.1054 11.8171 10 12.1086 10H14.3072C14.5987 10 14.8783 10.1054 15.0845 10.2929C15.2906 10.4804 15.4064 10.7348 15.4064 11V13C15.4064 13.2652 15.2906 13.5196 15.0845 13.7071C14.8783 13.8946 14.5987 14 14.3072 14H12.1086C11.8171 14 11.5375 13.8946 11.3313 13.7071C11.1252 13.5196 11.0093 13.2652 11.0093 13V11Z" fill="#95ACCB" fill-opacity="0.25"/>
</svg>
