<svg width="14" height="10" viewBox="0 0 14 10" fill="none" xmlns="http://www.w3.org/2000/svg">
<path fill-rule="evenodd" clip-rule="evenodd" d="M0.641602 9.5C0.641602 9.36739 0.69951 9.24021 0.802587 9.14645C0.905663 9.05268 1.04547 9 1.19124 9H13.2832C13.429 9 13.5688 9.05268 13.6719 9.14645C13.775 9.24021 13.8329 9.36739 13.8329 9.5C13.8329 9.63261 13.775 9.75979 13.6719 9.85355C13.5688 9.94732 13.429 10 13.2832 10H1.19124C1.04547 10 0.905663 9.94732 0.802587 9.85355C0.69951 9.75979 0.641602 9.63261 0.641602 9.5ZM0.641602 6.5C0.641602 6.36739 0.69951 6.24021 0.802587 6.14645C0.905663 6.05268 1.04547 6 1.19124 6H13.2832C13.429 6 13.5688 6.05268 13.6719 6.14645C13.775 6.24021 13.8329 6.36739 13.8329 6.5C13.8329 6.63261 13.775 6.75979 13.6719 6.85355C13.5688 6.94732 13.429 7 13.2832 7H1.19124C1.04547 7 0.905663 6.94732 0.802587 6.85355C0.69951 6.75979 0.641602 6.63261 0.641602 6.5ZM0.641602 3.5C0.641602 3.36739 0.69951 3.24021 0.802587 3.14645C0.905663 3.05268 1.04547 3 1.19124 3H13.2832C13.429 3 13.5688 3.05268 13.6719 3.14645C13.775 3.24021 13.8329 3.36739 13.8329 3.5C13.8329 3.63261 13.775 3.75979 13.6719 3.85355C13.5688 3.94732 13.429 4 13.2832 4H1.19124C1.04547 4 0.905663 3.94732 0.802587 3.85355C0.69951 3.75979 0.641602 3.63261 0.641602 3.5ZM0.641602 0.5C0.641602 0.367392 0.69951 0.240215 0.802587 0.146447C0.905663 0.0526785 1.04547 0 1.19124 0H13.2832C13.429 0 13.5688 0.0526785 13.6719 0.146447C13.775 0.240215 13.8329 0.367392 13.8329 0.5C13.8329 0.632608 13.775 0.759785 13.6719 0.853553C13.5688 0.947321 13.429 1 13.2832 1H1.19124C1.04547 1 0.905663 0.947321 0.802587 0.853553C0.69951 0.759785 0.641602 0.632608 0.641602 0.5Z" fill="#5595AC"/>
</svg>
