<svg width="32" height="17" viewBox="0 0 32 17" fill="none" xmlns="http://www.w3.org/2000/svg">
<path d="M31.71 15.2901L16.71 0.29006C16.5227 0.103809 16.2692 -0.000732422 16.005 -0.000732422C15.7408 -0.000732422 15.4874 0.103809 15.3 0.29006L0.300027 15.2901C0.136201 15.4814 0.0505949 15.7274 0.0603161 15.9791C0.0700372 16.2308 0.17437 16.4695 0.352464 16.6476C0.530559 16.8257 0.769298 16.9301 1.02097 16.9398C1.27265 16.9495 1.51873 16.8639 1.71003 16.7001L16 2.41006L30.29 16.7101C30.4813 16.8739 30.7274 16.9595 30.9791 16.9498C31.2308 16.9401 31.4695 16.8357 31.6476 16.6576C31.8257 16.4795 31.93 16.2408 31.9397 15.9891C31.9495 15.7374 31.8639 15.4914 31.7 15.3001L31.71 15.2901Z" fill="#393939"/>
</svg>
