<svg width="84" height="48" viewBox="0 0 84 48" fill="none" xmlns="http://www.w3.org/2000/svg">
<path d="M22.0833 35.8294C20.4348 37.4754 18.1989 38.4 15.8675 38.4C11.9647 38.4 8.65592 35.8608 7.50832 32.3467L0.343262 39.5003C3.61217 44.611 9.34342 48 15.8675 48C20.749 48 25.4306 46.0638 28.8824 42.6176L59.3782 12.1706C61.0267 10.5247 63.2626 9.6 65.5941 9.6C70.449 9.6 74.3846 13.5293 74.3846 18.3765C74.3846 20.7042 73.4585 22.9365 71.8099 24.5824L60.5449 35.8294C58.8963 37.4754 56.6604 38.4 54.329 38.4C50.4259 38.4 47.117 35.8603 45.9695 32.3459L38.8045 39.4997C42.0732 44.6109 47.8046 48 54.329 48C59.2106 48 63.8921 46.0638 67.3439 42.6176L78.609 31.3706C82.0607 27.9243 84 23.2502 84 18.3765C84 8.22742 75.7594 0 65.5941 0C60.7125 0 56.0309 1.93608 52.5792 5.38234L22.0833 35.8294Z" fill="black"/>
</svg>
