<svg width="84" height="48" viewBox="0 0 84 48" fill="none" xmlns="http://www.w3.org/2000/svg">
<path d="M29.671 0C24.7894 0 20.1079 1.93608 16.6561 5.38234L5.39096 16.6294C1.93918 20.0757 0 24.7498 0 29.6235C0 39.7726 8.24061 48 18.4059 48C23.2875 48 27.9691 46.0638 31.4208 42.6176L39.213 34.8379C39.213 34.8378 39.2131 34.8381 39.213 34.8379L61.9167 12.1706C63.5652 10.5247 65.8011 9.6 68.1325 9.6C72.0357 9.6 75.3449 12.1399 76.4921 15.6545L83.6574 8.50074C80.3886 3.38934 74.6571 0 68.1325 0C63.251 0 58.5694 1.93608 55.1176 5.38234L24.6218 35.8294C22.9732 37.4754 20.7373 38.4 18.4059 38.4C13.551 38.4 9.61539 34.4707 9.61539 29.6235C9.61539 27.2958 10.5415 25.0635 12.1901 23.4176L23.4551 12.1706C25.1037 10.5247 27.3396 9.6 29.671 9.6C33.5744 9.6 36.8833 12.14 38.0306 15.6547L45.196 8.50091C41.9272 3.38944 36.1957 0 29.671 0Z" fill="black"/>
</svg>
