<svg width="417" height="160" viewBox="0 0 417 160" fill="none" xmlns="http://www.w3.org/2000/svg">
<g filter="url(#filter0_d_2417_6342)">
<rect y="60" width="417" height="100" fill="#FFFBFB"/>
</g>
<path d="M222.71 101.29L207.71 86.29C207.523 86.1037 207.269 85.9992 207.005 85.9992C206.741 85.9992 206.487 86.1037 206.3 86.29L191.3 101.29C191.136 101.481 191.051 101.727 191.06 101.979C191.07 102.231 191.174 102.469 191.352 102.648C191.531 102.826 191.769 102.93 192.021 102.94C192.273 102.949 192.519 102.864 192.71 102.7L207 88.41L221.29 102.71C221.481 102.874 221.727 102.959 221.979 102.95C222.231 102.94 222.469 102.836 222.648 102.658C222.826 102.479 222.93 102.241 222.94 101.989C222.949 101.737 222.864 101.491 222.7 101.3L222.71 101.29Z" fill="#393939"/>
<path d="M217 116H212V106H202V116H197V102L195 104V116C195 116.53 195.211 117.039 195.586 117.414C195.961 117.789 196.47 118 197 118H204V108H210V118H217C217.53 118 218.039 117.789 218.414 117.414C218.789 117.039 219 116.53 219 116V103.76L217 101.76V116Z" fill="#393939"/>
<path d="M189.888 125.6H191.916V128.66H195.528V125.6H197.556V134H195.528V130.484H191.916V134H189.888V125.6ZM198.242 129.8C198.242 129.152 198.354 128.56 198.578 128.024C198.81 127.488 199.13 127.024 199.538 126.632C199.954 126.24 200.434 125.94 200.978 125.732C201.53 125.516 202.126 125.408 202.766 125.408C203.414 125.408 204.014 125.516 204.566 125.732C205.118 125.94 205.594 126.24 205.994 126.632C206.402 127.024 206.718 127.488 206.942 128.024C207.174 128.56 207.29 129.152 207.29 129.8C207.29 130.448 207.178 131.044 206.954 131.588C206.738 132.132 206.426 132.604 206.018 133.004C205.61 133.404 205.13 133.716 204.578 133.94C204.034 134.156 203.43 134.264 202.766 134.264C202.11 134.264 201.506 134.156 200.954 133.94C200.402 133.716 199.922 133.404 199.514 133.004C199.106 132.604 198.79 132.132 198.566 131.588C198.35 131.044 198.242 130.448 198.242 129.8ZM200.39 129.8C200.39 130.296 200.486 130.736 200.678 131.12C200.878 131.496 201.158 131.792 201.518 132.008C201.878 132.224 202.294 132.332 202.766 132.332C203.246 132.332 203.662 132.224 204.014 132.008C204.366 131.792 204.638 131.496 204.83 131.12C205.03 130.736 205.13 130.296 205.13 129.8C205.13 129.304 205.034 128.868 204.842 128.492C204.65 128.108 204.378 127.808 204.026 127.592C203.674 127.376 203.254 127.268 202.766 127.268C202.294 127.268 201.878 127.376 201.518 127.592C201.158 127.808 200.878 128.108 200.678 128.492C200.486 128.868 200.39 129.304 200.39 129.8ZM210.149 129.728L209.633 134H207.497L208.853 125.18L212.441 130.292L216.017 125.18L217.385 134H215.237L214.733 129.728L212.441 133.22L210.149 129.728ZM218.065 125.6H223.645V127.268H220.021V128.768H223.405V130.412H220.021V132.332H223.645V134H218.065V125.6Z" fill="#393939"/>
<defs>
<filter id="filter0_d_2417_6342" x="-40" y="0" width="497" height="180" filterUnits="userSpaceOnUse" color-interpolation-filters="sRGB">
<feFlood flood-opacity="0" result="BackgroundImageFix"/>
<feColorMatrix in="SourceAlpha" type="matrix" values="0 0 0 0 0 0 0 0 0 0 0 0 0 0 0 0 0 0 127 0" result="hardAlpha"/>
<feOffset dy="-20"/>
<feGaussianBlur stdDeviation="20"/>
<feComposite in2="hardAlpha" operator="out"/>
<feColorMatrix type="matrix" values="0 0 0 0 0.379167 0 0 0 0 0.255938 0 0 0 0 0.255938 0 0 0 0.07 0"/>
<feBlend mode="normal" in2="BackgroundImageFix" result="effect1_dropShadow_2417_6342"/>
<feBlend mode="normal" in="SourceGraphic" in2="effect1_dropShadow_2417_6342" result="shape"/>
</filter>
</defs>
</svg>
