<svg width="17" height="12" viewBox="0 0 17 12" fill="none" xmlns="http://www.w3.org/2000/svg">
<path d="M0.979222 2.26839L3.3834 0.125478C3.57121 -0.0418526 3.87585 -0.0417991 4.06353 0.125478L6.46762 2.26839C6.77031 2.53812 6.55476 3.00001 6.12754 3.00001H4.68535V11.5714C4.68535 11.8081 4.47004 12 4.20441 12H3.24255C2.97692 12 2.76162 11.8081 2.76162 11.5714V3.00001H1.3193C0.891242 3.00001 0.677167 2.53758 0.979222 2.26839ZM8.05187 1.7143H15.7468C16.0124 1.7143 16.2277 1.52243 16.2277 1.28573V0.428584C16.2277 0.191879 16.0124 1.34454e-05 15.7468 1.34454e-05H8.05187C7.78625 1.34454e-05 7.57094 0.191879 7.57094 0.428584V1.28573C7.57094 1.52243 7.78625 1.7143 8.05187 1.7143ZM7.57094 4.71429V3.85715C7.57094 3.62045 7.78625 3.42858 8.05187 3.42858H13.8231C14.0887 3.42858 14.304 3.62045 14.304 3.85715V4.71429C14.304 4.951 14.0887 5.14287 13.8231 5.14287H8.05187C7.78625 5.14287 7.57094 4.951 7.57094 4.71429ZM7.57094 11.5714V10.7143C7.57094 10.4776 7.78625 10.2857 8.05187 10.2857H9.9756C10.2412 10.2857 10.4565 10.4776 10.4565 10.7143V11.5714C10.4565 11.8081 10.2412 12 9.9756 12H8.05187C7.78625 12 7.57094 11.8081 7.57094 11.5714ZM7.57094 8.14286V7.28572C7.57094 7.04901 7.78625 6.85715 8.05187 6.85715H11.8993C12.165 6.85715 12.3803 7.04901 12.3803 7.28572V8.14286C12.3803 8.37957 12.165 8.57143 11.8993 8.57143H8.05187C7.78625 8.57143 7.57094 8.37957 7.57094 8.14286Z" fill="#C5C7CD"/>
</svg>
